#!OML:ASF X:\2005_08_12_Meinard\c3d\meinard.ASF
:FULLY-SPECIFIED
:DEGREES
2796
root 4.4039 16.2236 0.567565 369.707 -64.9 -385.513
lowerback 52.3502 5.44187 -6.55942
upperback 5.84707 2.89846 6.15057
thorax -15.0977 0.934742 8.74046
lowerneck -13.6734 14.9827 1.72651
upperneck -8.33107 19.4049 -4.9992
head 0.20222 9.55429 -0.921675
rclavicle 1.19271e-014 8.26944e-014
rhumerus -48.22 11.5337 -83.1129
rradius 86.5535
rwrist 0.04981
rhand 8.88794 -16.4354
rfingers 7.12502
rthumb 34.0708 -43.2034
lclavicle 1.19271e-014 8.26944e-014
lhumerus 38.3471 33.2075 -1048.28
lradius 52.0778
lwrist 905.494
lhand -10.3008 -2.57909
lfingers 7.12502
lthumb 15.6939 26.8045
rfemur -171.43 -178.275 197.125
rtibia 41.5244
rfoot 160.317 165.186
rtoes 16.2712
lfemur -201.78 183.613 -177.917
ltibia 48.3755
lfoot -6.23508 11.2263
ltoes 21.6451
2797
root 4.4207 16.2434 0.561781 369.573 -65.2894 -385.315
lowerback 52.363 5.27684 -6.18218
upperback 5.81834 2.83484 5.77095
thorax -15.0789 0.894153 8.15456
lowerneck -13.7436 14.9063 1.569
upperneck -8.24273 19.3288 -4.95019
head 0.219373 9.52073 -0.88276
rclavicle -3.53837e-014 8.74653e-015
rhumerus -48.3503 11.8003 -83.493
rradius 86.3818
rwrist 0.733175
rhand 8.39056 -15.936
rfingers 7.12502
rthumb 33.5983 -42.808
lclavicle -3.53837e-014 8.74653e-015
lhumerus 34.5681 31.1576 -1049.36
lradius 55.6951
lwrist 907.745
lhand -9.96937 -1.83902
lfingers 7.12502
lthumb 16.0131 27.5192
rfemur -171.75 -178.246 197.015
rtibia 41.108
rfoot 160.332 165.173
rtoes 16.674
lfemur -201.442 183.255 -178.082
ltibia 47.9457
lfoot -6.1033 11.1625
ltoes 21.3973
2798
root 4.43715 16.2639 0.554869 369.482 -65.7208 -385.176
lowerback 52.3647 5.12199 -5.82254
upperback 5.80347 2.77549 5.40852
thorax -15.0469 0.854756 7.59677
lowerneck -13.8279 14.8116 1.36938
upperneck -8.19074 19.2314 -4.91284
head 0.223837 9.47712 -0.843833
rclavicle 3.77691e-014 -4.53229e-014
rhumerus -48.4163 12.0159 -83.8489
rradius 86.352
rwrist 1.32876
rhand 8.0012 -15.5559
rfingers 7.12502
rthumb 33.2282 -42.5077
lclavicle 3.77691e-014 -4.53229e-014
lhumerus 31.0803 29.1705 -1050.01
lradius 59.4518
lwrist 908.64
lhand -9.32906 -1.5146
lfingers 7.12502
lthumb 16.6297 27.793
rfemur -172.082 -178.202 196.941
rtibia 40.7252
rfoot 160.258 165.483
rtoes 16.3894
lfemur -201.037 182.927 -178.219
ltibia 47.4707
lfoot -5.98615 11.1385
ltoes 21.033
2799
root 4.45423 16.2817 0.545824 369.336 -66.1456 -385.003
lowerback 52.4084 4.95674 -5.44658
upperback 5.7707 2.70904 5.03566
thorax -15.0415 0.813344 7.02515
lowerneck -13.9037 14.6756 1.08752
upperneck -8.18069 19.0897 -4.80066
head 0.196706 9.41461 -0.778968
rclavicle -8.34896e-015 7.95139e-015
rhumerus -48.4565 12.092 -84.1951
rradius 86.4667
rwrist 1.84276
rhand 7.76312 -15.337
rfingers 7.12502
rthumb 33.0018 -42.3369
lclavicle -8.34896e-015 7.95139e-015
lhumerus 28.0179 27.3216 -1050.08
lradius 63.2406
lwrist 908.65
lhand -8.5684 -1.49307
lfingers 7.12502
lthumb 17.3619 27.7515
rfemur -172.422 -178.066 196.866
rtibia 40.4354
rfoot 160.178 165.988
rtoes 15.777
lfemur -200.629 182.652 -178.371
ltibia 47.0085
lfoot -5.85876 11.168
ltoes 20.7547
2800
root 4.47075 16.2968 0.534471 369.209 -66.592 -384.841
lowerback 52.4145 4.80864 -5.13189
upperback 5.75977 2.6349 4.69004
thorax -15.0097 0.769695 6.51882
lowerneck -13.9555 14.5585 0.786174
upperneck -8.21864 18.9741 -4.72223
head 0.153132 9.36603 -0.723799
rclavicle 1.66979e-014 -2.94201e-014
rhumerus -48.4236 12.163 -84.5226
rradius 86.6528
rwrist 2.25643
rhand 7.6777 -15.228
rfingers 7.12502
rthumb 32.9205 -42.245
lclavicle 1.66979e-014 -2.94201e-014
lhumerus 25.1414 25.6097 -1049.86
lradius 67.0233
lwrist 908.555
lhand -7.79161 -1.77566
lfingers 7.12502
lthumb 18.1093 27.4013
rfemur -172.802 -177.809 196.795
rtibia 40.2287
rfoot 160.101 166.491
rtoes 15.0071
lfemur -200.241 182.43 -178.504
ltibia 46.5788
lfoot -5.73078 11.2682
ltoes 20.4381
2801
root 4.48681 16.3076 0.521094 369.065 -67.0523 -384.689
lowerback 52.4326 4.67991 -4.87229
upperback 5.75113 2.55435 4.36013
thorax -14.9798 0.725072 6.06074
lowerneck -13.9091 14.4525 0.533809
upperneck -8.33329 18.865 -4.67534
head 0.0784049 9.32123 -0.694251
rclavicle -3.73715e-014 -1.51076e-014
rhumerus -48.3114 12.2281 -84.8603
rradius 86.8735
rwrist 2.51723
rhand 7.70146 -15.2872
rfingers 7.12502
rthumb 32.9431 -42.2994
lclavicle -3.73715e-014 -1.51076e-014
lhumerus 22.2391 23.983 -1049.51
lradius 70.7961
lwrist 908.941
lhand -7.06995 -2.13146
lfingers 7.12502
lthumb 18.8035 26.9797
rfemur -173.171 -177.476 196.737
rtibia 40.0936
rfoot 160.035 166.796
rtoes 14.167
lfemur -199.849 182.27 -178.633
ltibia 46.1955
lfoot -5.63499 11.4307
ltoes 20.1608
2802
root 4.50268 16.315 0.505143 368.874 -67.4953 -384.504
lowerback 52.4499 4.55628 -4.68005
upperback 5.74542 2.44881 4.06539
thorax -14.9493 0.672424 5.68765
lowerneck -13.7925 14.3924 0.308652
upperneck -8.47041 18.8129 -4.66302
head -0.00673556 9.30541 -0.681013
rclavicle -6.20208e-014 5.1684e-014
rhumerus -48.1233 12.3031 -85.1883
rradius 87.1052
rwrist 2.76275
rhand 7.86882 -15.4071
rfingers 7.12502
rthumb 33.1023 -42.3856
lclavicle -6.20208e-014 5.1684e-014
lhumerus 19.3517 22.576 -1048.92
lradius 74.2846
lwrist 909.847
lhand -6.58794 -2.19449
lfingers 7.12502
lthumb 19.2671 26.8711
rfemur -173.51 -177.07 196.696
rtibia 40.0154
rfoot 159.982 166.731
rtoes 13.445
lfemur -199.495 182.159 -178.769
ltibia 45.8628
lfoot -5.50923 11.6364
ltoes 20.0708
